<?xml version="1.0" encoding="UTF-8" standalone="no"?>
<!-- Creator: CorelDRAW -->

<svg
   xmlns:dc="http://purl.org/dc/elements/1.1/"
   xmlns:cc="http://creativecommons.org/ns#"
   xmlns:rdf="http://www.w3.org/1999/02/22-rdf-syntax-ns#"
   xmlns:svg="http://www.w3.org/2000/svg"
   xmlns="http://www.w3.org/2000/svg"
   xmlns:sodipodi="http://sodipodi.sourceforge.net/DTD/sodipodi-0.dtd"
   xmlns:inkscape="http://www.inkscape.org/namespaces/inkscape"
   xml:space="preserve"
   width="1000px"
   height="600px"
   style="shape-rendering:geometricPrecision; text-rendering:geometricPrecision; image-rendering:optimizeQuality; fill-rule:evenodd; clip-rule:evenodd"
   viewBox="0 0 573.658 344.196"
   id="svg2"
   version="1.1"
   inkscape:version="0.47 r22583"
   sodipodi:docname="Royal_Standard_of_Tonga.svg"><metadata
   id="metadata43"><rdf:RDF><cc:Work
       rdf:about=""><dc:format>image/svg+xml</dc:format><dc:type
         rdf:resource="http://purl.org/dc/dcmitype/StillImage" /></cc:Work></rdf:RDF></metadata><sodipodi:namedview
   pagecolor="#ffffff"
   bordercolor="#666666"
   borderopacity="1"
   objecttolerance="10"
   gridtolerance="10"
   guidetolerance="10"
   inkscape:pageopacity="0"
   inkscape:pageshadow="2"
   inkscape:window-width="1280"
   inkscape:window-height="1004"
   id="namedview41"
   showgrid="false"
   inkscape:zoom="0.39333333"
   inkscape:cx="50.031776"
   inkscape:cy="361.15194"
   inkscape:window-x="-8"
   inkscape:window-y="-8"
   inkscape:window-maximized="1"
   inkscape:current-layer="svg2" />
 <defs
   id="defs4"><inkscape:perspective
   sodipodi:type="inkscape:persp3d"
   inkscape:vp_x="0 : 300 : 1"
   inkscape:vp_y="0 : 1000 : 0"
   inkscape:vp_z="1000 : 300 : 1"
   inkscape:persp3d-origin="500 : 200 : 1"
   id="perspective45" />
  <style
   type="text/css"
   id="style6">
   
    .fil0 {fill:#81BCED}
    .fil3 {fill:yellow}
    .fil1 {fill:white}
    .fil2 {fill:url(#id0)}
   
  </style>
  <linearGradient
   id="id0"
   gradientUnits="userSpaceOnUse"
   x1="343.857"
   y1="211.108"
   x2="229.801"
   y2="145.258">
   <stop
   offset="0"
   style="stop-color:#943030"
   id="stop9" />
   <stop
   offset="1"
   style="stop-color:#DA251D"
   id="stop11" />
  </linearGradient>
 <inkscape:perspective
   id="perspective2859"
   inkscape:persp3d-origin="0.5 : 0.33333333 : 1"
   inkscape:vp_z="1 : 0.5 : 1"
   inkscape:vp_y="0 : 1000 : 0"
   inkscape:vp_x="0 : 0.5 : 1"
   sodipodi:type="inkscape:persp3d" /></defs>
 <g
   id="Layer_x0020_1">
  <metadata
   id="CorelCorpID_0Corel-Layer" />
  <g
   id="_59463464">
   <rect
   id="_59564480"
   class="fil0"
   width="573.66"
   height="344.196"
   style="fill:#7ab4e4;fill-opacity:1" />
   <g
   id="g17">
    <circle
   id="_58531280"
   class="fil1"
   cx="286.829"
   cy="172.098"
   r="89.3993" />
    <path
   id="_26004664"
   class="fil2"
   d="M318.248 152.774c0.854798,-0.181042 2.37522,1.4673 2.89396,2.44406 0.353411,0.666168 2.45761,3.47502 1.89877,4.16504 -0.472117,0.583236 -3.7249,0.271562 -4.43118,0.271562 -1.46514,0 -1.70634,-3.27501 -2.07981,-4.6171 -0.258553,-0.928516 -0.726335,-1.27109 0.181042,-1.90148 1.08462,-0.753437 1.03476,-0.467781 1.53723,-0.362083zm10.8218 -37.5184c0.596245,2.33511 -1.32366,4.44582 -1.32366,11.5867 0,7.14084 -0.467239,7.84495 -2.8842,7.75931 -5.60362,-0.198929 1.36919,-17.2017 4.20786,-19.346zm-84.4825 0.000542041c-0.596245,2.33511 1.32312,4.44582 1.32312,11.5867 0,7.14084 0.467781,7.84495 2.88474,7.75877 5.60362,-0.198387 -1.36919,-17.2011 -4.20786,-19.3454zm10.8218 37.5179c-0.854798,-0.181042 -2.37522,1.4673 -2.89396,2.44406 -0.353411,0.666168 -2.45761,3.47502 -1.89877,4.16504 0.472117,0.583236 3.72436,0.271562 4.43118,0.271562 1.46514,0 1.70634,-3.27501 2.07981,-4.6171 0.258553,-0.928516 0.726335,-1.27109 -0.181042,-1.90148 -1.08462,-0.753437 -1.03476,-0.467781 -1.53723,-0.362083zm31.4183 -17.8006c-1.2738,0 -1.8283,-3.01646 -3.48153,-3.01646 -0.474286,0 -1.84998,1.64184 -2.8533,3.01646 -0.561012,0.768614 -2.23158,-3.61433 -2.96442,-2.78934 -1.0212,1.15021 -0.595161,1.38762 -1.81909,2.78934 -0.445015,0.509518 -2.3633,-2.52428 -2.83541,-1.98062 -0.798968,0.919301 -1.17352,2.65058 -1.99905,3.71515 -0.295412,0.381055 -2.29392,-1.41527 -2.59204,-1.02012 -0.48621,0.642318 -0.685139,2.04295 -1.1578,2.73405 -0.281319,0.410867 -13.9695,-2.3015 -15.7257,0.0406531 -0.682971,0.910628 -4.38782,2.94599 -4.21274,5.10711 0.0981094,1.21309 1.37516,2.39907 1.81258,3.81868 0.444473,1.44291 -5.00195,2.80994 -4.42956,4.35638 0.45152,1.22013 2.39799,4.02248 3.28314,5.24641 0.647739,0.897077 -4.00839,3.50971 -3.33409,5.41336 1.40497,3.96665 9.17295,5.83886 8.67373,10.631 -0.259095,2.49068 -7.20535,-2.0191 -6.8682,0.125753 0.296496,1.8863 6.30122,5.42366 6.68987,7.81406 0.343112,2.11016 -5.87464,2.99857 -4.72009,4.42197 1.3963,1.72152 4.48268,3.04844 6.29255,4.19214 0.326308,0.205975 -1.84836,3.96611 -0.934478,5.03881 1.03638,1.21634 5.16782,-0.18863 5.43721,1.02066 0.346364,1.55728 -2.33132,1.92858 -1.21851,3.26363 1.15726,1.38762 6.10717,0.289992 6.88934,1.78386 0.671046,1.28301 -2.7991,3.32542 -1.98495,4.4133 0.742596,0.992476 4.97485,-0.749642 4.94937,0.319804 -0.0997355,4.08807 3.96286,6.0443 4.80194,6.39716 1.59902,0.672672 1.3345,-11.6631 3.26254,-34.8516 0.121417,-1.46026 -4.07615,-4.03441 -1.96815,-6.84814 0.591366,-0.789753 3.53411,-0.47808 4.72714,3.78182 1.09817,3.92058 0.0455314,51.2044 0.0455314,45.9347 -0.124669,1.26079 0.735007,4.65559 0.000542041,5.83127 -0.582152,0.932852 -1.84294,1.71935 -2.58879,2.91564 -1.97194,3.16172 0.674841,5.00846 1.77952,6.96468 0.581068,1.02825 1.47164,2.52916 2.99261,1.94322 3.04464,-1.17298 1.70689,-2.47496 -0.160986,-3.64414 -2.36818,-1.48194 -1.65756,-5.16511 -0.485668,-7.04544 1.37353,-2.2034 3.24791,-2.5915 6.698,-2.5915 3.45009,0 5.32392,0.387559 6.698,2.5915 1.17243,1.88088 1.88251,5.56351 -0.485668,7.04544 -1.86787,1.16918 -3.20617,2.47116 -0.160986,3.64414 1.52097,0.585946 2.41154,-0.914965 2.99261,-1.94322 1.10468,-1.95622 3.75146,-3.80296 1.77952,-6.96468 -0.745848,-1.19628 -2.00663,-1.98278 -2.58879,-2.91564 -0.734465,-1.17569 0.125211,-4.57049 0.000542041,-5.83127 0,5.26972 -1.05264,-42.0141 0.0455314,-45.9347 1.19303,-4.2599 4.13577,-4.57157 4.72714,-3.78182 2.10745,2.81373 -2.08957,5.38788 -1.96815,6.84814 1.92804,23.1885 1.66298,35.5243 3.26254,34.8516 0.839079,-0.352868 4.90167,-2.30909 4.80194,-6.39716 -0.0254759,-1.06945 4.20678,0.672672 4.94937,-0.319804 0.814145,-1.08788 -2.656,-3.13028 -1.98495,-4.4133 0.782165,-1.49386 5.73208,-0.396232 6.88934,-1.78386 1.11281,-1.33505 -1.56487,-1.70634 -1.21851,-3.26363 0.269394,-1.20929 4.40083,0.195677 5.43667,-1.02066 0.914423,-1.0727 -1.26024,-4.83283 -0.933936,-5.03881 1.80987,-1.14371 4.89625,-2.47062 6.29255,-4.19214 1.15455,-1.4234 -5.0632,-2.3118 -4.72009,-4.42197 0.388643,-2.3904 6.39337,-5.92776 6.68987,-7.81406 0.337149,-2.14485 -6.6091,2.36492 -6.8682,-0.125753 -0.499219,-4.79218 7.26877,-6.66439 8.67319,-10.631 0.674841,-1.90365 -3.98129,-4.51628 -3.33355,-5.41336 0.88461,-1.22393 2.83162,-4.02628 3.28314,-5.24641 0.572395,-1.54644 -4.87403,-2.91347 -4.42956,-4.35638 0.437427,-1.4196 1.71447,-2.60559 1.81258,-3.81868 0.175079,-2.16112 -3.52977,-4.19648 -4.21274,-5.10711 -1.75621,-2.34216 -15.4444,0.370214 -15.7257,-0.0406531 -0.472659,-0.691102 -0.67213,-2.09173 -1.1578,-2.73405 -0.298122,-0.395148 -2.29663,1.40118 -2.59204,1.02012 -0.825528,-1.06457 -1.20008,-2.79585 -1.99905,-3.71515 -0.472117,-0.543667 -2.3904,2.49013 -2.83541,1.98062 -1.22393,-1.40172 -0.797884,-1.63913 -1.81909,-2.78934 -0.732839,-0.824986 -2.40341,3.55795 -2.96442,2.78934 -1.00332,-1.37462 -2.37902,-3.01646 -2.8533,-3.01646 -1.65322,0 -2.20936,3.01646 -3.4837,3.01646zm0.00108408 110.186c-24.0059,0 -7.63573,-18.8771 -26.1627,-31.2383 -3.7764,-2.51941 -8.22926,-4.52983 -12.0138,-9.1968 -5.22148,-6.43782 -9.13501,-12.0431 -9.65645,-20.3314 -0.623889,-9.91067 0.594619,-13.7499 -0.163154,-20.4886 -0.798426,-7.09314 -6.06327,-17.2044 1.54319,-29.0561 3.13842,-4.88921 2.2641,-3.67829 2.41588,-5.97004 0.226031,-3.39426 -3.133,-10.0977 -2.12643,-17.6705 12.5211,2.97472 9.30196,10.7519 19.0132,12.7439 5.62476,1.154 7.58965,-5.45889 27.1503,-4.74286 19.5606,-0.716036 21.5255,5.89686 27.1503,4.74286 9.7112,-1.992 6.49148,-9.7692 19.0126,-12.7439 1.00657,7.57285 -2.35191,14.2763 -2.12643,17.6705 0.152313,2.29175 -0.721998,1.08083 2.41588,5.97004 7.607,11.8517 2.34216,21.9619 1.54373,29.0561 -2.82566,25.0997 5.41282,31.8362 -21.8334,50.0168 -18.5275,12.3612 -2.15678,31.2383 -26.1627,31.2383zm-22.6871 -88.4567c0.147435,2.7514 3.50809,5.58952 5.78141,6.87687 1.63371,0.924179 3.25279,4.06585 0.889489,5.54074 -1.13612,0.708447 -2.61806,1.73941 -3.4593,0 -1.01633,-2.09932 -4.67076,-3.79428 -5.13855,-6.62862 -0.170201,-1.03421 -0.821192,-6.60531 1.92695,-5.78899zm1.64022 -3.69509c1.75242,1.15997 6.49094,5.92234 7.50184,5.42691 2.99857,-1.47001 -1.83535,-5.89957 -6.86061,-8.56533 -3.37691,-1.79253 -6.73594,-2.30205 -8.26124,-2.41642 -6.84055,-0.51277 6.08441,4.53796 7.62001,5.55483zm43.734 3.69509c-0.147435,2.7514 -3.50809,5.58952 -5.78195,6.87687 -1.63317,0.924179 -3.25224,4.06585 -0.888947,5.54074 1.13612,0.708447 2.61751,1.73941 3.4593,0 1.01633,-2.09932 4.67076,-3.79428 5.13855,-6.62862 0.170201,-1.03421 0.821192,-6.60531 -1.92695,-5.78899zm-1.64022 -3.69509c-1.75242,1.15997 -6.49148,5.92234 -7.50184,5.42691 -2.99857,-1.47001 1.83535,-5.89957 6.86061,-8.56533 3.37691,-1.79253 6.7354,-2.30205 8.26124,-2.41642 6.84055,-0.51277 -6.08441,4.53796 -7.62001,5.55483z"
   style="fill:#c50000;fill-opacity:1" />
   </g>
   <g
   id="g21"
   style="fill:#f4e525;fill-opacity:1">
    <path
   id="_57599344"
   class="fil3"
   d="M65.0644 212.228l0 3.25875c-1.2223,1.01416 -3.56609,1.33125 -6.12994,1.32529 -2.68093,-0.00867265 -15.2622,-2.97147 -15.7105,-10.3768 -0.188088,-3.09885 4.2084,-5.64264 3.65552,-7.79671 -0.628767,-2.44352 -5.56838,-3.25387 -10.6289,0.671046 0.163154,-5.64048 0,-8.68674 0.000542041,-15.7289 3.2517,3.50971 10.2153,0.298664 8.5946,4.37481 -2.13889,5.37 9.296,2.33077 12.4127,7.00913 0.550713,0.827154 1.31011,1.71556 2.93352,1.97682 4.83609,0.26289 0,0 4.83609,0.26289 0,3.21213 0,6.63024 0,8.8461 -0.753437,1.08842 -3.868,-0.550713 -3.79428,1.32421 0.157192,4.06585 2.5232,3.77694 3.8306,4.85343zm-13.3743 -10.3752c1.83589,2.32535 4.24147,3.31837 5.37488,2.20773 1.13015,-1.10631 0.559928,-3.89294 -1.27542,-6.221 -1.83535,-2.32644 -4.24038,-3.31892 -5.37433,-2.20882 -1.13015,1.10685 -0.559386,3.89348 1.27488,6.22208z"
   style="fill:#f4e525;fill-opacity:1" />
    <path
   id="_59326832"
   class="fil3"
   d="M65.0644 87.1574l0 -3.21268c-1.2223,-1.00007 -3.56609,-1.31282 -6.12994,-1.30686 -2.68093,0.00813061 -15.2622,2.92973 -15.7105,10.2316 -0.188088,3.05548 4.2084,5.56405 3.65552,7.68776 -0.628767,2.40937 -5.56838,3.20888 -10.6289,-0.661832 0.163154,5.56188 0,8.56533 0.000542041,15.5094 3.2517,-3.46039 10.2153,-0.294328 8.5946,-4.31356 -2.13889,-5.2952 9.296,-2.29825 12.4127,-6.91102 0.550713,-0.815771 1.31011,-1.69225 2.93352,-1.94918 4.83609,-0.259637 0,0 4.83609,-0.259637 0,-3.16714 0,-6.53755 0,-8.72252 -0.753437,-1.0727 -3.868,0.543125 -3.79428,-1.30578 0.157192,-4.00839 2.5232,-3.72382 3.8306,-4.78568zm-13.3743 10.2305c1.83589,-2.29283 4.24147,-3.2723 5.37488,-2.17684 1.13015,1.09113 0.559928,3.83873 -1.27542,6.13373 -1.83535,2.29446 -4.24038,3.27284 -5.37433,2.17792 -1.13015,-1.09113 -0.559386,-3.83873 1.27488,-6.13482z"
   style="fill:#f4e525;fill-opacity:1" />
    <path
   id="_58826928"
   class="fil3"
   d="M65.0644 292.452l0 3.25875c-1.2223,1.01416 -3.56609,1.33125 -6.12994,1.32529 -2.68093,-0.00867265 -15.2622,-2.97147 -15.7105,-10.3768 -0.188088,-3.09885 4.2084,-5.64264 3.65552,-7.79671 -0.628767,-2.44352 -5.56838,-3.25387 -10.6289,0.671046 0.163154,-5.64048 0,-8.68674 0.000542041,-15.7289 3.2517,3.50971 10.2153,0.298664 8.5946,4.37481 -2.13889,5.37 9.296,2.33077 12.4127,7.00913 0.550713,0.827154 1.31011,1.71556 2.93352,1.97682 4.83609,0.26289 0,0 4.83609,0.26289 0,3.21213 0,6.63024 0,8.8461 -0.753437,1.08842 -3.868,-0.550713 -3.79428,1.32421 0.157192,4.06585 2.5232,3.77694 3.8306,4.85343zm-13.3743 -10.3752c1.83589,2.32535 4.24147,3.31837 5.37488,2.20773 1.13015,-1.10631 0.559928,-3.89294 -1.27542,-6.221 -1.83535,-2.32644 -4.24038,-3.31892 -5.37433,-2.20882 -1.13015,1.10685 -0.559386,3.89348 1.27488,6.22208z"
   style="fill:#f4e525;fill-opacity:1" />
    <path
   id="_59198712"
   class="fil3"
   d="M65.0644 8.05472l0 -3.21268c-1.2223,-1.00007 -3.56609,-1.31282 -6.12994,-1.30686 -2.68093,0.00813061 -15.2622,2.92973 -15.7105,10.2316 -0.188088,3.05548 4.2084,5.56405 3.65552,7.68776 -0.628767,2.40937 -5.56838,3.20888 -10.6289,-0.661832 0.163154,5.56188 0,8.56533 0.000542041,15.5094 3.2517,-3.46093 10.2153,-0.294328 8.5946,-4.3141 -2.13889,-5.29465 9.296,-2.29825 12.4127,-6.91102 0.550713,-0.815229 1.31011,-1.69171 2.93352,-1.94918 4.83609,-0.259095 0,0 4.83609,-0.259095 0,-3.16714 0,-6.53755 0,-8.72252 -0.753437,-1.07324 -3.868,0.543125 -3.79428,-1.30578 0.157192,-4.00893 2.5232,-3.72382 3.8306,-4.78568zm-13.3743 10.2305c1.83589,-2.29283 4.24147,-3.2723 5.37488,-2.17684 1.13015,1.09059 0.559928,3.83819 -1.27542,6.13373 -1.83535,2.29392 -4.24038,3.27284 -5.37433,2.17792 -1.13015,-1.09113 -0.559386,-3.83873 1.27488,-6.13482z"
   style="fill:#f4e525;fill-opacity:1" />
    <path
   id="_59198904"
   class="fil3"
   d="M65.0644 235.157l0 -3.25875c-1.2223,-1.01416 -3.56609,-1.33125 -6.12994,-1.32529 -2.68093,0.00867265 -15.2622,2.97147 -15.7105,10.3768 -0.188088,3.09885 4.2084,5.64264 3.65552,7.79671 -0.628767,2.44352 -5.56838,3.25387 -10.6289,-0.671046 0.163154,5.64048 0,8.68674 0.000542041,15.7289 3.2517,-3.50971 10.2153,-0.298664 8.5946,-4.37481 -2.13889,-5.37 9.296,-2.33077 12.4127,-7.00913 0.550713,-0.827154 1.31011,-1.71556 2.93352,-1.97682 4.83609,-0.26289 0,0 4.83609,-0.26289 0,-3.21213 0,-6.63024 0,-8.8461 -0.753437,-1.08842 -3.868,0.550713 -3.79428,-1.32421 0.157192,-4.06585 2.5232,-3.77694 3.8306,-4.85343zm-13.3743 10.3752c1.83589,-2.32535 4.24147,-3.31837 5.37488,-2.20773 1.13015,1.10631 0.559928,3.89294 -1.27542,6.221 -1.83535,2.32644 -4.24038,3.31892 -5.37433,2.20882 -1.13015,-1.10685 -0.559386,-3.89348 1.27488,-6.22208z"
   style="fill:#f4e525;fill-opacity:1" />
    <path
   id="_59266192"
   class="fil3"
   d="M65.0644 154.933l0 -3.25875c-1.2223,-1.01416 -3.56609,-1.33125 -6.12994,-1.32529 -2.68093,0.00867265 -15.2622,2.97147 -15.7105,10.3768 -0.188088,3.09885 4.2084,5.64264 3.65552,7.79671 -0.628767,2.44352 -5.56838,3.25387 -10.6289,-0.671046 0.163154,5.64048 0,8.68674 0.000542041,15.7289 3.2517,-3.50971 10.2153,-0.298664 8.5946,-4.37481 -2.13889,-5.37 9.296,-2.33077 12.4127,-7.00913 0.550713,-0.827154 1.31011,-1.71556 2.93352,-1.97682 4.83609,-0.26289 0,0 4.83609,-0.26289 0,-3.21213 0,-6.63024 0,-8.8461 -0.753437,-1.08842 -3.868,0.550713 -3.79428,-1.32421 0.157192,-4.06585 2.5232,-3.77694 3.8306,-4.85343zm-13.3743 10.3752c1.83589,-2.32535 4.24147,-3.31837 5.37488,-2.20773 1.13015,1.10631 0.559928,3.89294 -1.27542,6.221 -1.83535,2.32644 -4.24038,3.31892 -5.37433,2.20882 -1.13015,-1.10685 -0.559386,-3.89348 1.27488,-6.22208z"
   style="fill:#f4e525;fill-opacity:1" />
    <path
   id="_58440248"
   class="fil3"
   d="M65.0644 64.5489l0 3.21268c-1.2223,1.00061 -3.56609,1.31336 -6.12994,1.3074 -2.68093,-0.00867265 -15.2622,-2.92973 -15.7105,-10.2316 -0.188088,-3.05603 4.2084,-5.56459 3.65552,-7.6883 -0.628767,-2.40883 -5.56838,-3.20834 -10.6289,0.661832 0.163154,-5.56134 0,-8.56533 0.000542041,-15.5089 3.2517,3.46039 10.2153,0.294328 8.5946,4.31356 -2.13889,5.29465 9.296,2.29825 12.4127,6.91102 0.550713,0.815771 1.31011,1.69171 2.93352,1.94918 4.83609,0.259095 0,0 4.83609,0.259095 0,3.16769 0,6.53755 0,8.72252 -0.753437,1.07324 -3.868,-0.543125 -3.79428,1.30632 0.157192,4.00839 2.5232,3.72382 3.8306,4.78514zm-13.3743 -10.2305c1.83589,2.29283 4.24147,3.2723 5.37488,2.17684 1.13015,-1.09059 0.559928,-3.83819 -1.27542,-6.13373 -1.83535,-2.29392 -4.24038,-3.27284 -5.37433,-2.17792 -1.13015,1.09167 -0.559386,3.83873 1.27488,6.13482z"
   style="fill:#f4e525;fill-opacity:1" />
    <path
   id="_58375856"
   class="fil3"
   d="M65.0644 315.381l0 -3.25875c-1.2223,-1.01416 -3.56609,-1.33125 -6.12994,-1.32529 -2.68093,0.00867265 -15.2622,2.97147 -15.7105,10.3768 -0.188088,3.09885 4.2084,5.64264 3.65552,7.79671 -0.628767,2.44352 -5.56838,3.25387 -10.6289,-0.671046 0.163154,5.64048 0,8.68674 0.000542041,15.7289 3.2517,-3.50971 10.2153,-0.298664 8.5946,-4.37481 -2.13889,-5.37 9.296,-2.33077 12.4127,-7.00913 0.550713,-0.827154 1.31011,-1.71556 2.93352,-1.97682 4.83609,-0.26289 0,0 4.83609,-0.26289 0,-3.21213 0,-6.63024 0,-8.8461 -0.753437,-1.08842 -3.868,0.550713 -3.79428,-1.32421 0.157192,-4.06585 2.5232,-3.77694 3.8306,-4.85343zm-13.3743 10.3752c1.83589,-2.32535 4.24147,-3.31837 5.37488,-2.20773 1.13015,1.10631 0.559928,3.89294 -1.27542,6.221 -1.83535,2.32644 -4.24038,3.31892 -5.37433,2.20882 -1.13015,-1.10685 -0.559386,-3.89348 1.27488,-6.22208z"
   style="fill:#f4e525;fill-opacity:1" />
    <path
   id="_58376360"
   class="fil3"
   d="M65.0644 143.652l0 3.21268c-1.2223,1.00007 -3.56609,1.31282 -6.12994,1.30686 -2.68093,-0.00813061 -15.2622,-2.92973 -15.7105,-10.2316 -0.188088,-3.05548 4.2084,-5.56405 3.65552,-7.68776 -0.628767,-2.40937 -5.56838,-3.20888 -10.6289,0.661832 0.163154,-5.56188 0,-8.56587 0.000542041,-15.5094 3.2517,3.46039 10.2153,0.294328 8.5946,4.31356 -2.13889,5.2952 9.296,2.29825 12.4127,6.91102 0.550713,0.815771 1.31011,1.69225 2.93352,1.94918 4.83609,0.259095 0,0 4.83609,0.259095 0,3.16769 0,6.53755 0,8.72306 -0.753437,1.0727 -3.868,-0.543667 -3.79428,1.30578 0.157192,4.00839 2.5232,3.72382 3.8306,4.78568zm-13.3743 -10.2305c1.83589,2.29283 4.24147,3.2723 5.37488,2.17629 1.13015,-1.09059 0.559928,-3.83819 -1.27542,-6.13319 -1.83535,-2.29446 -4.24038,-3.27338 -5.37433,-2.17846 -1.13015,1.09167 -0.559386,3.83927 1.27488,6.13536z"
   style="fill:#f4e525;fill-opacity:1" />
    <path
   id="_59154016"
   class="fil3"
   d="M46.7049 0c0,5.57922 -4.68161,10.1036 -10.4543,10.1036l0 -10.1036 10.4543 0z"
   style="fill:#f4e525;fill-opacity:1" />
    <path
   id="_108011176"
   class="fil3"
   d="M46.7049 303.917c0,5.65836 -4.68161,10.2467 -10.4543,10.2467l0 -10.2467 0 -10.2467c5.77273,0 10.4543,4.58837 10.4543,10.2467z"
   style="fill:#f4e525;fill-opacity:1" />
    <path
   id="_59047720"
   class="fil3"
   d="M46.7049 223.693c0,5.65836 -4.68161,10.2467 -10.4543,10.2467l0 -10.2467 0 -10.2467c5.77273,0 10.4543,4.58837 10.4543,10.2467z"
   style="fill:#f4e525;fill-opacity:1" />
    <path
   id="_108009272"
   class="fil3"
   d="M46.7049 75.9963c0,5.65836 -4.68161,10.2467 -10.4543,10.2467l0 -10.2467 0 -10.2467c5.77273,0 10.4543,4.58837 10.4543,10.2467z"
   style="fill:#f4e525;fill-opacity:1" />
    <path
   id="_57785480"
   class="fil3"
   d="M54.6101 263.736c0,5.65836 4.68161,10.2467 10.4543,10.2467l0 -10.2467 0 -10.2467c-5.77273,0 -10.4543,4.58837 -10.4543,10.2467z"
   style="fill:#f4e525;fill-opacity:1" />
    <path
   id="_60332104"
   class="fil3"
   d="M54.6101 183.512c0,5.65836 4.68161,10.2467 10.4543,10.2467l0 -10.2467 0 -10.2467c-5.77273,0 -10.4543,4.58837 -10.4543,10.2467z"
   style="fill:#f4e525;fill-opacity:1" />
    <path
   id="_57301064"
   class="fil3"
   d="M54.6101 115.481c0,5.65836 4.68161,10.2467 10.4543,10.2467l0 -10.2467 0 -10.2467c-5.77273,0 -10.4543,4.58837 -10.4543,10.2467z"
   style="fill:#f4e525;fill-opacity:1" />
    <path
   id="_60399936"
   class="fil3"
   d="M54.6101 36.3774c0,5.65836 4.68161,10.2467 10.4543,10.2467l0 -10.2467 0 -10.2467c-5.77273,0 -10.4543,4.58837 -10.4543,10.2467z"
   style="fill:#f4e525;fill-opacity:1" />
    <path
   id="_58531032"
   class="fil3"
   d="M54.6101 344.196c0,-5.65836 4.68161,-10.2467 10.4543,-10.2467l0 10.2467 -10.4543 0z"
   style="fill:#f4e525;fill-opacity:1" />
   </g>
  </g>
 </g>
</svg>